<svg width="32" height="44" viewBox="0 0 32 44" fill="none" xmlns="http://www.w3.org/2000/svg">
<path d="M31.7571 40.0107L29.5241 14.7107C29.3564 12.8049 27.7861 11.3667 25.8721 11.3667C25.4324 11.3667 25.0746 11.7242 25.0746 12.1642V16.1086C25.0746 16.4991 24.7794 16.8401 24.3899 16.8648C23.9627 16.8923 23.6079 16.5541 23.6079 16.1333V7.60833C23.6079 3.41275 20.1952 0 15.9996 0C11.804 0 8.39127 3.41275 8.39127 7.60833V11.3667H6.1271C4.2131 11.3667 2.64285 12.8049 2.4751 14.7107L0.242099 40.0107C0.0541819 42.1488 1.74021 44 3.89502 44H28.1042C30.2593 44 31.945 42.1485 31.7571 40.0107ZM11.7829 39.1417H6.46627C6.06128 39.1417 5.73293 38.8133 5.73293 38.4083C5.73293 38.0033 6.06128 37.675 6.46627 37.675H11.7829C12.1879 37.675 12.5163 38.0033 12.5163 38.4083C12.5163 38.8133 12.1879 39.1417 11.7829 39.1417ZM11.7829 35.475H6.46627C6.06128 35.475 5.73293 35.1467 5.73293 34.7417C5.73293 34.3367 6.06128 34.0083 6.46627 34.0083H11.7829C12.1879 34.0083 12.5163 34.3367 12.5163 34.7417C12.5163 35.1467 12.1879 35.475 11.7829 35.475ZM22.1413 11.3667H12.1221C11.6821 11.3667 11.3246 11.7242 11.3246 12.1642V16.1086C11.3246 16.4991 11.0294 16.8401 10.6398 16.8648C10.2127 16.8923 9.85793 16.5541 9.85793 16.1333V7.60833C9.85793 4.22217 12.6134 1.46667 15.9996 1.46667C19.3858 1.46667 22.1413 4.22217 22.1413 7.60833V11.3667Z" fill="#DB3022"/>
</svg>
